PathFileType	4	(X/Y/Z)	/Users/itak/Documents/Research/Walk-IL/dataset/trc/00112_00007.trc
DataRate	CameraRate	NumFrames	NumMarkers	Units	OrigDataRate	OrigDataStartFrame	OrigNumFrames
100.000000	100.000000	4	53	mm	100.000000	490	560
Frame#	Time	RPSI			LPSI			L3			STRN			T10			C7			CLAV			RBAK			LBAK			LSHO			LUPA			LAEL			LAOL			LWTS			LWPS			LFRA			LIFD			LHPS			LHTS			RSHO			RUPA			RAEL			RAOL			RWTS			RWPS			RFRA			RIFD			RHTS			RHPS			RBHD			LFHD			RFHD			LBHD			LHIP			RHIP			RASI			LASI			LKNE			LTHI			LANK			LTIP			LTOE			LMT1			LMT5			LHEE			RKNE			RTHI			RANK			RTIP			RTOE			RMT1			RMT5			RHEE			
		X1	Y1	Z1	X2	Y2	Z2	X3	Y3	Z3	X4	Y4	Z4	X5	Y5	Z5	X6	Y6	Z6	X7	Y7	Z7	X8	Y8	Z8	X9	Y9	Z9	X10	Y10	Z10	X11	Y11	Z11	X12	Y12	Z12	X13	Y13	Z13	X14	Y14	Z14	X15	Y15	Z15	X16	Y16	Z16	X17	Y17	Z17	X18	Y18	Z18	X19	Y19	Z19	X20	Y20	Z20	X21	Y21	Z21	X22	Y22	Z22	X23	Y23	Z23	X24	Y24	Z24	X25	Y25	Z25	X26	Y26	Z26	X27	Y27	Z27	X28	Y28	Z28	X29	Y29	Z29	X30	Y30	Z30	X31	Y31	Z31	X32	Y32	Z32	X33	Y33	Z33	X34	Y34	Z34	X35	Y35	Z35	X36	Y36	Z36	X37	Y37	Z37	X38	Y38	Z38	X39	Y39	Z39	X40	Y40	Z40	X41	Y41	Z41	X42	Y42	Z42	X43	Y43	Z43	X44	Y44	Z44	X45	Y45	Z45	X46	Y46	Z46	X47	Y47	Z47	X48	Y48	Z48	X49	Y49	Z49	X50	Y50	Z50	X51	Y51	Z51	X52	Y52	Z52	X53	Y53	Z53	

491	4.9	-1508.551391601562	1126.507934570312	-299.4268493652344	-1502.870727539062	1128.011962890625	-434.2346801757812	-1512.341918945312	1161.382690429688	-370.3568115234375	-1297.110229492188	1363.91357421875	-359.1915588378906	-1552.708129882812	1309.054809570312	-374.6185913085938	-1520.478271484375	1601.921752929688	-385.8257446289062	-1337.536743164062	1497.746459960938	-364.70751953125	-1576.640502929688	1416.67431640625	-302.3345642089844	-1521.360107421875	1583.4091796875	-488.7174072265625	-1429.236572265625	1571.265380859375	-549.3322143554688	-1437.894897460938	1440.73876953125	-621.7708129882812	-1404.947387695312	1222.949340820312	-645.801025390625	-1478.088134765625	1204.676635742188	-601.0205688476562	-1285.515991210938	978.7845458984375	-581.3627319335938	-1356.966552734375	943.3603515625	-621.7444458007812	-1375.439453125	1108.991333007812	-645.8491821289062	-1257.738159179688	786.9046630859375	-552.2771606445312	-1318.927368164062	872.27001953125	-615.2529907226562	-1257.983032226562	891.7599487304688	-587.0951538085938	-1478.73193359375	1582.803833007812	-201.4199676513672	-1498.6806640625	1508.6181640625	-139.2456512451172	-1500.985229492188	1212.854614257812	-121.4350357055664	-1498.759521484375	1212.66162109375	-218.6779632568359	-1340.148315429688	981.0353393554688	-120.6050796508789	-1415.679565429688	958.1340942382812	-96.75164794921875	-1475.176025390625	1140.800048828125	-103.8914794921875	-1300.283081054688	789.0027465820312	-136.4327087402344	-1302.71728515625	874.7362060546875	-112.2302703857422	-1372.817016601562	861.7240600585938	-88.28895568847656	-1484.991088867188	1776.309692382812	-298.5391540527344	-1320.9267578125	1843.519775390625	-430.0138549804688	-1321.280151367188	1846.684936523438	-300.1157836914062	-1491.406860351562	1777.090454101562	-433.967041015625	-1404.987182617188	1039.645751953125	-535.5006713867188	-1385.818237304688	1033.424438476562	-174.4185638427734	-1302.656005859375	1107.635986328125	-226.5294952392578	-1299.309448242188	1105.406005859375	-492.9014282226562	-1381.934814453125	538.072265625	-506.3575439453125	-1401.427856445312	683.9589233398438	-533.402587890625	-1491.17138671875	35.48488998413086	-495.9265441894531	-1481.636840820312	289.5579223632812	-532.3050537109375	-1261.237182617188	38.36256408691406	-434.9562072753906	-1342.318969726562	41.6659049987793	-401.1773681640625	-1365.0673828125	34.26678085327148	-518.3641967773438	-1560.126220703125	36.46488189697266	-433.6371459960938	-1380.179931640625	540.9684448242188	-204.5784301757812	-1361.21337890625	820.550048828125	-177.7128601074219	-1484.741943359375	29.70473480224609	-219.5535888671875	-1406.555786132812	406.335205078125	-192.5415802001953	-1250.25927734375	45.00558090209961	-249.6658782958984	-1304.754760742188	30.48471069335938	-296.0055541992188	-1352.679565429688	42.66358947753906	-186.5938110351562	-1537.919921875	31.90512275695801	-274.4171447753906	
492	4.91	-1508.372680664062	1126.475952148438	-299.6907958984375	-1502.845092773438	1127.977783203125	-434.5325317382812	-1512.247314453125	1161.3203125	-370.6152954101562	-1297.212890625	1363.949584960938	-359.5928649902344	-1552.842895507812	1308.94482421875	-374.9365844726562	-1520.727172851562	1601.799682617188	-386.128662109375	-1337.692016601562	1497.744995117188	-365.1183776855469	-1576.713500976562	1416.57080078125	-302.5763549804688	-1521.615478515625	1583.259399414062	-488.9856567382812	-1429.612548828125	1571.180908203125	-549.741943359375	-1438.416259765625	1440.631225585938	-622.1495971679688	-1405.864868164062	1222.78271484375	-646.13818359375	-1478.862182617188	1204.651000976562	-601.0578002929688	-1287.1015625	978.0753784179688	-582.3377075195312	-1358.837158203125	943.0072021484375	-622.5053100585938	-1376.688110351562	1108.744873046875	-646.3634643554688	-1259.855834960938	786.10302734375	-553.6985473632812	-1321.058837890625	871.7667846679688	-616.298828125	-1259.87109375	890.9853515625	-588.3319702148438	-1478.85498046875	1582.75	-201.7780609130859	-1498.76513671875	1508.531982421875	-139.6097717285156	-1500.940673828125	1212.82080078125	-121.6293487548828	-1498.787841796875	1212.546997070312	-218.8920745849609	-1340.351806640625	980.8854370117188	-120.6923217773438	-1415.849609375	958.0615234375	-96.80580902099609	-1475.162719726562	1140.775146484375	-104.0443496704102	-1300.633666992188	788.8048706054688	-136.3483123779297	-1302.921875	874.5938110351562	-112.2378997802734	-1373.057495117188	861.6105346679688	-88.25614166259766	-1485.48046875	1776.149658203125	-298.9129943847656	-1321.47021484375	1843.671264648438	-430.3466491699219	-1321.870971679688	1846.786499023438	-300.4634399414062	-1491.834350585938	1776.934814453125	-434.3758544921875	-1404.97900390625	1039.6162109375	-535.8182373046875	-1385.633178710938	1033.424926757812	-174.7344970703125	-1302.542358398438	1107.678466796875	-226.8896026611328	-1299.263793945312	1105.405151367188	-493.2696838378906	-1382.023803710938	538.0300903320312	-506.5	-1401.4697265625	683.91845703125	-533.598876953125	-1491.175170898438	35.49273300170898	-495.9154663085938	-1481.670532226562	289.5397033691406	-532.3814697265625	-1261.232421875	38.35507583618164	-434.9471130371094	-1342.313598632812	41.65300750732422	-401.166748046875	-1365.057739257812	34.27222061157227	-518.3483276367188	-1560.123657226562	36.47599029541016	-433.6277465820312	-1380.03564453125	540.9658203125	-204.7351379394531	-1361.036376953125	820.5508422851562	-177.9827423095703	-1484.721313476562	29.72039985656738	-219.5589752197266	-1406.450317382812	406.3526611328125	-192.6899566650391	-1250.19140625	44.8356819152832	-249.6385955810547	-1304.694702148438	30.422119140625	-296.0128784179688	-1352.645385742188	42.63016128540039	-186.58935546875	-1537.896484375	31.92864608764648	-274.4298095703125	
493	4.92	-1508.180297851562	1126.449951171875	-299.9154663085938	-1502.80078125	1127.949584960938	-434.7881469726562	-1512.143432617188	1161.271606445312	-370.8399353027344	-1297.316772460938	1363.983276367188	-359.9835815429688	-1552.958374023438	1308.850341796875	-375.2185668945312	-1520.9638671875	1601.679077148438	-386.436767578125	-1337.7958984375	1497.742919921875	-365.4931335449219	-1576.77001953125	1416.475830078125	-302.8043823242188	-1521.830810546875	1583.108642578125	-489.2335510253906	-1429.955444335938	1571.10498046875	-550.1237182617188	-1438.893188476562	1440.537109375	-622.5048217773438	-1406.759155273438	1222.618041992188	-646.4443969726562	-1479.626708984375	1204.63916015625	-601.0631713867188	-1288.7802734375	977.3041381835938	-583.335693359375	-1360.8173828125	942.6389770507812	-623.2639770507812	-1377.971435546875	1108.496459960938	-646.8570556640625	-1262.169677734375	785.2256469726562	-555.164794921875	-1323.359497070312	871.2269287109375	-617.3607177734375	-1261.917358398438	890.1282958984375	-589.5929565429688	-1478.946899414062	1582.697875976562	-202.1163177490234	-1498.8212890625	1508.467529296875	-139.9423370361328	-1500.881958007812	1212.8017578125	-121.7824554443359	-1498.79931640625	1212.439819335938	-219.0499877929688	-1340.58935546875	980.7099609375	-120.7715377807617	-1416.061279296875	957.9930419921875	-96.81340026855469	-1475.147216796875	1140.764038085938	-104.1532135009766	-1301.102661132812	788.5626220703125	-136.2514953613281	-1303.225830078125	874.4107666015625	-112.2462921142578	-1373.364135742188	861.4829711914062	-88.1907958984375	-1485.934448242188	1775.989013671875	-299.2811889648438	-1321.981689453125	1843.81396484375	-430.6784057617188	-1322.429565429688	1846.886840820312	-300.8147277832031	-1492.25146484375	1776.787353515625	-434.7752380371094	-1404.94287109375	1039.590942382812	-536.0982666015625	-1385.431640625	1033.424438476562	-175.0379180908203	-1302.412841796875	1107.713500976562	-227.2315979003906	-1299.218505859375	1105.405883789062	-493.6106262207031	-1382.112548828125	537.9910278320312	-506.6205749511719	-1401.520141601562	683.8821411132812	-533.7816772460938	-1491.18017578125	35.50498199462891	-495.9013061523438	-1481.71240234375	289.5294494628906	-532.4397583007812	-1261.227783203125	38.3503532409668	-434.9402465820312	-1342.310791015625	41.64166259765625	-401.1585083007812	-1365.051513671875	34.27695083618164	-518.3352661132812	-1560.122314453125	36.49106979370117	-433.6133728027344	-1379.893920898438	540.9576416015625	-204.8844299316406	-1360.877685546875	820.540283203125	-178.2317047119141	-1484.69921875	29.72767066955566	-219.5568695068359	-1406.35546875	406.3748168945312	-192.8161468505859	-1250.12451171875	44.64822387695312	-249.6000823974609	-1304.621337890625	30.36146354675293	-296.0252685546875	-1352.6064453125	42.58868789672852	-186.5800170898438	-1537.876098632812	31.95341682434082	-274.4389038085938	
494	4.93	-1507.984741210938	1126.429321289062	-300.1080627441406	-1502.746459960938	1127.925659179688	-435.0086059570312	-1512.040893554688	1161.233520507812	-371.0402221679688	-1297.422973632812	1364.011962890625	-360.3697509765625	-1553.047973632812	1308.766967773438	-375.46435546875	-1521.184204101562	1601.563354492188	-386.7456359863281	-1337.860473632812	1497.739379882812	-365.8322143554688	-1576.81201171875	1416.390991210938	-303.0191650390625	-1522.014892578125	1582.958618164062	-489.4645385742188	-1430.259765625	1571.036743164062	-550.4764404296875	-1439.319580078125	1440.452026367188	-622.8304443359375	-1407.619995117188	1222.455200195312	-646.7219848632812	-1480.376953125	1204.640502929688	-601.0536499023438	-1290.549438476562	976.4776000976562	-584.3370971679688	-1362.885986328125	942.2594604492188	-624.0240478515625	-1379.276977539062	1108.244750976562	-647.329345703125	-1264.681274414062	784.2770385742188	-556.65185546875	-1325.808471679688	870.6537475585938	-618.4306640625	-1264.122680664062	889.1895751953125	-590.8536987304688	-1479.004638671875	1582.648681640625	-202.4328308105469	-1498.847900390625	1508.426391601562	-140.2383575439453	-1500.808715820312	1212.798217773438	-121.8985290527344	-1498.786743164062	1212.344116210938	-219.1549835205078	-1340.854125976562	980.5119018554688	-120.8413925170898	-1416.314331054688	957.929931640625	-96.78304290771484	-1475.131103515625	1140.76708984375	-104.2243118286133	-1301.6767578125	788.2808227539062	-136.1455688476562	-1303.637573242188	874.1845092773438	-112.254150390625	-1373.738403320312	861.3467407226562	-88.09949493408203	-1486.357299804688	1775.830688476562	-299.6479797363281	-1322.466552734375	1843.951293945312	-431.008056640625	-1322.961669921875	1846.988891601562	-301.1648864746094	-1492.659301757812	1776.653442382812	-435.16455078125	-1404.880126953125	1039.569458007812	-536.34765625	-1385.216918945312	1033.42236328125	-175.3305358886719	-1302.26806640625	1107.742919921875	-227.5571594238281	-1299.176391601562	1105.408203125	-493.9270629882812	-1382.194580078125	537.9568481445312	-506.7181396484375	-1401.574584960938	683.8494873046875	-533.9488525390625	-1491.186767578125	35.52289581298828	-495.8817138671875	-1481.758666992188	289.5266418457031	-532.4773559570312	-1261.222045898438	38.34725570678711	-434.9341430664062	-1342.309936523438	41.63183975219727	-401.1512451171875	-1365.0478515625	34.2817268371582	-518.3238525390625	-1560.123046875	36.51129913330078	-433.5927429199219	-1379.764404296875	540.945556640625	-205.0231323242188	-1360.742431640625	820.517578125	-178.4656066894531	-1484.6767578125	29.72719764709473	-219.5479583740234	-1406.280517578125	406.4014892578125	-192.9169769287109	-1250.063110351562	44.45193862915039	-249.5483703613281	-1304.539916992188	30.30574226379395	-296.0411987304688	-1352.562744140625	42.53884887695312	-186.5646362304688	-1537.857543945312	31.97933387756348	-274.4443969726562	
